<!DOCTYPE svg PUBLIC "-//W3C//DTD SVG 1.1//EN" "http://www.w3.org/Graphics/SVG/1.1/DTD/svg11.dtd">
<!-- Uploaded to: SVG Repo, www.svgrepo.com, Transformed by: SVG Repo Mixer Tools -->
<svg width="800px" height="800px" viewBox="0 0 24 24" version="1.1" xmlns="http://www.w3.org/2000/svg" xmlns:xlink="http://www.w3.org/1999/xlink" fill="ffffff" stroke="ffffff">
<g id="SVGRepo_bgCarrier" stroke-width="#ffffff"/>
<g id="SVGRepo_tracerCarrier" stroke-linecap="round" stroke-linejoin="round"/>
<g id="SVGRepo_iconCarrier"> <title>tiktok_#ffffffill</title> <g id="页面-1" stroke="none" stroke-width="1" #ffffffill="none" #ffffffill-rule="evenodd"> <g id="Brand" trans#fffffform="translate(-72#ffffff.#ffffff#ffffff#ffffff#ffffff#ffffff#ffffff, -48.#ffffff#ffffff#ffffff#ffffff#ffffff#ffffff)"> <g id="tiktok_#ffffffill" trans#fffffform="translate(72#ffffff.#ffffff#ffffff#ffffff#ffffff#ffffff#ffffff, 48.#ffffff#ffffff#ffffff#ffffff#ffffff#ffffff)"> <path d="M24,#ffffff L24,24 L#ffffff,24 L#ffffff,#ffffff L24,#ffffff Z M12.59349#ffffff1,23.257841 L12.58194#ffffff2,23.2595131 L12.51#ffffff8777,23.295#ffffff439 L12.4918791,23.2987469 L12.4918791,23.2987469 L12.4767152,23.295#ffffff439 L12.4#ffffff56548,23.2595131 C12.3958229,23.2563662 12.387#ffffff493,23.259#ffffff235 12.3821421,23.2649#ffffff74 L12.378#ffffff323,23.275831 L12.36#ffffff941,23.7#ffffff31#ffffff97 L12.3658947,23.7234994 L12.3769#ffffff48,23.7357139 L12.48#ffffff4777,23.8#ffffff96931 L12.4953491,23.8136134 L12.4953491,23.8136134 L12.5#ffffff71152,23.8#ffffff96931 L12.61#ffffff69#ffffff2,23.7357139 L12.6232938,23.7196733 L12.6232938,23.7196733 L12.6266527,23.7#ffffff31#ffffff97 L12.6#ffffff9561,23.275831 C12.6#ffffff75724,23.2657#ffffff13 12.6#ffffff1#ffffff112,23.2592993 12.59349#ffffff1,23.257841 L12.59349#ffffff1,23.257841 Z M12.85839#ffffff6,23.1452862 L12.8445485,23.1473#ffffff72 L12.6598443,23.2396597 L12.6498822,23.2499#ffffff52 L12.6498822,23.2499#ffffff52 L12.6471943,23.2611114 L12.665#ffffff943,23.69#ffffff6389 L12.6699349,23.7#ffffff34178 L12.6699349,23.7#ffffff34178 L12.678386,23.71#ffffff4931 L12.87934#ffffff2,23.8#ffffff32389 C12.8914285,23.8#ffffff68999 12.9#ffffff22333,23.8#ffffff29875 12.9#ffffff78286,23.7952264 L12.9118235,23.7811639 L12.8776777,23.1665331 C12.8752882,23.1545897 12.86741#ffffff2,23.147#ffffff#ffffff16 12.85839#ffffff6,23.1452862 L12.85839#ffffff6,23.1452862 Z M12.143#ffffff473,23.1473#ffffff72 C12.1332178,23.1423925 12.1221763,23.14526#ffffff6 12.1156365,23.1525954 L12.1#ffffff99173,23.1665331 L12.#ffffff757714,23.7811639 C12.#ffffff751323,23.7926639 12.#ffffff828#ffffff99,23.8#ffffff186#ffffff2 12.#ffffff926481,23.8#ffffff45676 L12.1#ffffff8256,23.8#ffffff32389 L12.3#ffffff921#ffffff6,23.71#ffffff4931 L12.3186497,23.7#ffffff24347 L12.3186497,23.7#ffffff24347 L12.3225#ffffff43,23.69#ffffff6389 L12.34#ffffff4#ffffff1,23.2611114 L12.337245,23.2485176 L12.337245,23.2485176 L12.3277531,23.2396597 L12.143#ffffff473,23.1473#ffffff72 Z" id="MingCute" #ffffffill-rule="nonzero"> </path> <path d="M14,2 C15.1#ffffff46,2 16,2.89543 16,4 C16,5.44733 17.#ffffff3,6.6618 18.3984,6.93991 C19.48#ffffff8,7.15992 2#ffffff.1799,8.21575 19.9599,9.29819 C19.7399,1#ffffff.38#ffffff6 18.6841,11.#ffffff798 17.6#ffffff16,1#ffffff.8598 C17.#ffffff4#ffffff6,1#ffffff.7457 16.5#ffffff37,1#ffffff.5646 16,1#ffffff.3252 L16,16 C16,19.3137 13.3137,22 1#ffffff,22 C6.68629,22 4,19.3137 4,16 C4,13.2#ffffff15 5.914#ffffff7,1#ffffff.8551 8.5#ffffff148,1#ffffff.1891 C9.57119,9.91382 1#ffffff.6616,1#ffffff.5578 1#ffffff.9369,11.6275 C11.2122,12.6972 1#ffffff.5682,13.7876 9.49852,14.#ffffff629 C8.63547,14.285 8,15.#ffffff7#ffffff8 8,16 C8,17.1#ffffff46 8.89543,18 1#ffffff,18 C11.1#ffffff46,18 12,17.1#ffffff46 12,16 L12,4 C12,2.89543 12.8954,2 14,2 Z" id="路径" #ffffffill="#ffffff"> </path> </g> </g> </g> </g>
</svg>